<?xml version="1.0" encoding="UTF-8"?>
<svg id="eest" xmlns="http://www.w3.org/2000/svg" viewBox="0 0 595.28 841.89">
  <defs>
    <style>
      .cls-1 {
        fill: none;
      }

      .cls-1, .cls-2, .cls-3, .cls-4 {
        stroke-miterlimit: 10;
      }

      .cls-1, .cls-2, .cls-3, .cls-4, .cls-5 {
        stroke-width: 2px;
      }

      .cls-1, .cls-3, .cls-4, .cls-5 {
        stroke: #000;
      }

      .cls-2 {
        fill: #f2f2f7;
        stroke: #1d1d1b;
      }

      .cls-3 {
        fill: #000;
      }

      .cls-4 {
        fill: #f4f4f9;
      }

      .cls-6 {
        fill: #7f7f84;
        stroke-width: 0px;
      }

      .cls-5 {
        fill: #000007;
      }
    </style>
  </defs>
  <path class="cls-2" d="M22.99,120.94c0,55.64-2.1,158.74,7.61,292.86,12.75,176.17,171.57,315.29,264.31,315.29,240.74-60.61,266.27-323.06,266.27-337.75,0-148.2,3.77-209.43,3.84-269.17,0-.57-542.03-1.85-542.03-1.85v.61Z"/>
  <polygon class="cls-4" points="565.07 97.58 565.02 110.04 24.02 110.04 24.02 97.58 24.02 97.58 565.07 97.58 565.07 97.58"/>
  <path class="cls-3" d="M407.5,646.31c-19.56-4.35-37.09-8.27-37.39-8.26-.09,0-14.78-28.66-14.78-28.69-18.54,3.11-32.11,6.95-32.17,6.96,1.3,17.39,1.56,26.91,1.74,43.04-8.94,9.54-20.34,17.36-31.52,28.66-.17.17-29.16-30.31-29.34-30.4-.03-.02-.85-41.72-.87-41.73-.06-.03-25.61-6.07-25.65-6.09-.04-.02-22.54,30.9-22.61,30.87-.31-.16-37.73,6.05-37.82,5.65-1.74-7.83-5.65-23.91-7.39-33.91,5.87-15.11,15.22-27.82,16.52-32.6-.04-.04-20.41-19.98-20.43-20-.01-.01-29.52,15.66-29.56,15.65-13.87-3.61-22.33-6.96-35.99-10.84,2.51-12.2,5.17-25.74,7.3-40.02,12.75-7.52,19.13-10.43,26.52-14.78-2.23-7.27-5.97-25.21-7.39-29.56-10.43-.87-20.44-1.24-33.47-2.17-8.26-9.13-13.37-14.39-23.48-26.08,3.82-4.76,7.55-9.64,11.61-14.33,4.04-4.66,7.76-8.89,9.7-11.76,14.29-1.7,26.49-1.51,38.26-2.61,1.74-5.27,4.15-22.72,5.65-29.56-7.51-5.85-22.61-13.91-29.56-18.69-1.53-12.59-3.48-22.17-4.35-37.39,5.59-1.99,11.58-3.89,17.92-5.74,6.19-1.81,12.49-3.44,18.6-4.69,11.74,6.52,19.56,10,29.56,15.22,4.44-4.35,10.87-13.91,17.82-20.87-7.39-16.08-10.24-20.54-13.91-29.56,3.04-10.87,8.26-24.34,10.87-31.59,18.82,1.19,21.36,1.62,34.4,3.36,6.9,10.84,15.63,23.41,19.94,30.41.05,0,27.38-6.94,27.39-6.96,2.17-12.61,2.98-16.1,4.78-26.95,6.09-6.96,25.55-22.97,25.94-23.04,4.03,3.21,28.08,22.55,28.4,22.61-.17,11.74.76,27.8.87,27.82,4.84.85,23.42,3.93,28.26,4.78,7.39-11.3,12.36-17.27,20.41-29.16,10.45-.84,36.7-3.49,36.97-3.44,4.94,12.48,6.04,21.54,9.75,32.28-4.31,9.78-9.75,18.58-14.97,29.88.11.11,18.25,18.25,18.26,18.26,11.38-4.58,23.76-8.67,32.6-12.17.38.38,30.18,11.84,34.96,14.88-5.67,20.61-5.9,24.14-9.5,35.57,0,.01-27.2,14.75-27.2,14.77,1.61,5.94,5.82,22.26,7.43,28.2,15.17.66,21.7,1.3,32.57,1.8,14.35,14.35,17.82,18.26,23.91,25.21.2.23-19.09,33.32-19.13,33.47,0,.02-31.29-.35-36.95-.4,0,.03-6.62,27.76-6.63,27.79,0,.03,28.81,16.04,28.8,16.08-.03.13,4.39,42.88,4.35,43.04-18.69,3.91-22.91,5.41-37.39,6.96-9.56-6.09-16.11-9.09-26.08-14.78-9.69,7.82-15.78,13.46-19.13,16.08,3.85,12.63,6.52,17.39,10.87,30-3.48,14.78-4.78,26.52-8.26,39.56Z"/>
  <path class="cls-1" d="M453.15,393.3c1.61,5.94,5.82,22.26,7.43,28.2,15.17.66,21.7,1.3,32.57,1.8"/>
  <path class="cls-4" d="M276.65,409.38c-14.35,2.93-27.39,23.04-27.39,29.56-26.52,1.74-56.51,1.74-80.42,1.74,0-18.85,31.74-99.99,106.07-109.12,0,17.35,1.74,58.97,1.74,77.82Z"/>
  <path class="cls-4" d="M340.98,440.25c-2.71-14.39-22.61-27.75-29.13-27.85-1.32-26.54-.85-56.53-.47-80.44,18.84.3,99.47,33.31,107.43,107.78-17.35-.27-58.99.81-77.83.51Z"/>
  <path class="cls-6" d="M214.83,426.78v-46.79c0-6.82,1.45-11.11-2.47-12.55v-1.52h35.38v10.84h-19.78v13.83h19.14v11.67h-19.14v13.67h23.28l-6.95,10.84h-29.46Z"/>
  <path class="cls-6" d="M338.81,418.39v-36.84c0-6.82.52-11.13-2.47-12.55v-1.52h35.38v10.84h-19.78v13.83h19.14v11.67h-19.14v13.67h24.28l5.05,10.84h-35.01l-7.45-9.95Z"/>
  <path class="cls-4" d="M311.03,501.98c14.34-2.96,27.34-23.12,27.33-29.64,26.51-1.79,56.51-1.85,80.42-1.9.04,18.87-33.54,100.14-107.86,109.43-.03-17.37.15-59.02.11-77.89Z"/>
  <path class="cls-4" d="M249.48,471.57c2.75,14.38,22.7,27.69,29.22,27.78,1.39,26.54.99,56.53.68,80.44-18.86-.25-99.65-33.06-107.81-107.51,17.37.23,59.04-.96,77.91-.71Z"/>
  <g>
    <path class="cls-5" d="M76.97,162.49v56.23h-17.31v-56.23h-17.39v-12.94h50.98v12.94h-16.28Z"/>
    <path class="cls-5" d="M103.29,218.72v-51.95c0-7.52-.87-12.96-4.78-14.64v-2.57h41.94v13.64h-19.96v12.86h19.31v13.16h-19.31v13.76h23.5l-7,15.74h-33.7Z"/>
    <path class="cls-5" d="M204.02,218.72l.11-30.08c0-2.47-.33-9.32-.33-9.32-.22,1.78-14.87,21.52-14.87,21.52h-9.57c-9.84-17.28-11.3-19.52-11.3-19.52.11,1.68.11,4.85.11,7.32v30.08h-18.39v-51.95c0-7.42-.87-12.86-4.89-14.55v-2.67h24.02l13.09,27.31,6,.03,16.09-27.34h17.09v69.17h-17.15Z"/>
    <path class="cls-5" d="M254.21,194.08h-7.2v24.64h-18.31v-51.95c0-7.52-.87-12.96-4.78-14.64v-2.57h30.29c15.33,0,23.48,7.92,23.48,22.36s-8.15,22.17-23.48,22.17ZM254.41,162.32h-7.39v19.69h7.39c4.02,0,5.76-3.86,5.76-9.9s-1.74-9.8-5.76-9.8Z"/>
    <path class="cls-5" d="M285.96,218.72v-51.95c0-7.52-.87-12.96-4.78-14.64v-2.57h41.94v12.64h-18.96v12.86h18.31v13.16h-18.31v14.76h22.5l-6,15.74h-34.7Z"/>
    <path class="cls-5" d="M363.44,218.72l-7.04-24.96c-1.2-4-2.07-4.94-5-4.94h-1.74v29.9h-17.31v-51.95c0-7.52-.87-12.96-4.78-14.64v-2.57h32.13c15.44,0,21.42,7.52,21.42,20.09,0,7.52-5.78,14.5-12.98,16.84,2.26,4.48,18.7,32.24,18.7,32.24h-23.39ZM358.38,162.22h-9.72v16.53h9.72c4.02,0,5.76-3.27,5.76-8.21s-1.74-8.31-5.76-8.31Z"/>
    <path class="cls-5" d="M391.65,218.72v-51.95c0-7.52-.87-12.96-4.78-14.64v-2.57h25.98v54.42h22.61l-7,14.74h-36.81Z"/>
    <path class="cls-5" d="M437.84,218.72v-51.95c0-7.52-.87-12.96-4.78-14.64v-2.57h42.94v12.64h-19.96v12.86h19.31v13.16h-19.31v14.76h27.5l-7,15.74h-38.7Z"/>
    <path class="cls-5" d="M519.9,188.04v30.67h-21.3v-30.67l-9.89-21.28c-3.59-7.82-6.09-13.56-9.78-14.64v-2.57h24.35l3.37,9.99c1.09,3.27,2.07,7.52,2.61,9.6h.32c.44-2.08,1.52-6.63,2.5-9.7l3.26-9.89h20.33l-15.76,38.49Z"/>
  </g>
  <path class="cls-6" d="M357.72,504.46v49.1h-12.13v-49.1h-11.68l7-9.76h36.3v9.76h-19.5Z"/>
  <path class="cls-6" d="M234,553.22c-4.67-.22-19.67-15.73-19.67-15.73,3.08,3.05,10.9,2.62,15.87,2.87,9.27.47,13.13-.2,13.13-5.53,0-10.4-22.89-6.14-22.53-25.6.13-7.2,3.07-14.27,14.67-15.6,4.38,0,11.47.13,17.66,1.2v8.2c-4.91-2.09-17.66-3.8-19.08,2.62-3.73,17.13,27.95,9.71,26.62,28.91-2.27,11.73-12.53,19.33-26.67,18.67Z"/>
  <path class="cls-4" d="M305.2,487.76c-2.32,0-20.93.18-24.67,0-2.27-2.53-4.43-4.31-7.07-6.93-.11-3.6-.25-8.13,0-15.33l12.93.4c-.27,3.73-.15,6.14-.33,9.47,4.13,0,10.47.13,13.27-.4.13-4.51.04-9.46.04-12.33-4.8-.13-6.32,0-16.44,0-2.37-1.95-5.07-5-8.45-7.76l-.06-29.21h36.97v13.15h-25.27l.17,9.75c.69,0,18.63.66,19.18.66,3.87,3.29,4.49,3.72,7.07,6.35,0,6.95-.27,17.65-.53,25.52-2.53,2.8-3.04,3.49-6.8,6.67ZM274.48,454.87,298.22,466.47"/>
</svg>